<svg width="154" height="132" viewBox="0 0 154 132" fill="none" xmlns="http://www.w3.org/2000/svg">
<path d="M14.8211 3H139.179C142.314 3 145.321 4.30195 147.538 6.61945C149.755 8.93694 151 12.0801 151 15.3576V90.9859C151 94.2633 149.755 97.4065 147.538 99.724C145.321 102.041 142.314 103.343 139.179 103.343H14.8211C11.6859 103.343 8.6792 102.041 6.46232 99.724C4.24543 97.4065 3 94.2633 3 90.9859V15.3576C3 12.0801 4.24543 8.93694 6.46232 6.61945C8.6792 4.30195 11.6859 3 14.8211 3Z" stroke="#109D9A" stroke-width="5" stroke-miterlimit="10"/>
<path d="M76.7636 19.3119C78.0694 19.3119 79.1278 18.2054 79.1278 16.8404C79.1278 15.4754 78.0694 14.3689 76.7636 14.3689C75.4579 14.3689 74.3994 15.4754 74.3994 16.8404C74.3994 18.2054 75.4579 19.3119 76.7636 19.3119Z" fill="#109D9A"/>
<path d="M97.5685 102.849V129.047H56.4312V102.849" stroke="#109D9A" stroke-width="5" stroke-miterlimit="10"/>
<path d="M34.6807 129.047H119.792" stroke="#109D9A" stroke-width="5" stroke-miterlimit="10"/>
</svg>
