<svg width="164" height="132" viewBox="0 0 164 132" fill="none" xmlns="http://www.w3.org/2000/svg">
<path d="M20.8289 40.1103C22.8661 40.1103 24.5176 38.3915 24.5176 36.2713C24.5176 34.151 22.8661 32.4323 20.8289 32.4323C18.7916 32.4323 17.1401 34.151 17.1401 36.2713C17.1401 38.3915 18.7916 40.1103 20.8289 40.1103Z" fill="#109D9A"/>
<path d="M83.5369 109.212C102.891 109.212 118.58 93.1703 118.58 73.3816C118.58 53.5928 102.891 37.5509 83.5369 37.5509C64.1833 37.5509 48.4941 53.5928 48.4941 73.3816C48.4941 93.1703 64.1833 109.212 83.5369 109.212Z" stroke="#109D9A" stroke-width="5" stroke-miterlimit="10"/>
<path d="M83.5368 90.6571C93.0438 90.6571 100.751 82.9226 100.751 73.3816C100.751 63.8406 93.0438 56.1061 83.5368 56.1061C74.0297 56.1061 66.3228 63.8406 66.3228 73.3816C66.3228 82.9226 74.0297 90.6571 83.5368 90.6571Z" stroke="#109D9A" stroke-width="5" stroke-miterlimit="10"/>
<path d="M148.089 17.7162H113.047L99.5214 3H65.7082L51.5681 17.7162H15.9105C12.4864 17.7162 9.20259 19.1318 6.7814 21.6516C4.36021 24.1715 3 27.5891 3 31.1527V115.611C3 119.174 4.36021 122.592 6.7814 125.112C9.20259 127.632 12.4864 129.047 15.9105 129.047H148.089C151.514 129.047 154.797 127.632 157.219 125.112C159.64 122.592 161 119.174 161 115.611V31.1527C161 27.5891 159.64 24.1715 157.219 21.6516C154.797 19.1318 151.514 17.7162 148.089 17.7162Z" stroke="#109D9A" stroke-width="5" stroke-miterlimit="10"/>
</svg>
