<svg width="172" height="132" viewBox="0 0 172 132" fill="none" xmlns="http://www.w3.org/2000/svg">
<path d="M22.7221 3.15405H150.222C153.478 3.15405 156.601 4.61086 158.904 7.20398C161.206 9.7971 162.5 13.3141 162.5 16.9814V99.9452C162.5 103.612 161.206 107.129 158.904 109.723C156.601 112.316 153.478 113.773 150.222 113.773H22.7221C19.4658 113.773 16.3429 112.316 14.0404 109.723C11.7379 107.129 10.4443 103.612 10.4443 99.9452V16.9814C10.4443 13.3141 11.7379 9.7971 14.0404 7.20398C16.3429 4.61086 19.4658 3.15405 22.7221 3.15405Z" stroke="#109D9A" stroke-width="5" stroke-miterlimit="10"/>
<path d="M149.278 113.773H163.917C165.169 113.773 166.37 114.333 167.256 115.33C168.142 116.328 168.639 117.68 168.639 119.091L165.806 126.005C163.917 129.727 162.5 129.195 159.667 129.195H10.9169C8.08355 129.195 8.08355 128.132 6.66688 125.473L3.36133 119.623C3.36133 116.432 5.25022 113.773 8.08355 113.773H21.3058" stroke="#109D9A" stroke-width="5" stroke-miterlimit="10"/>
<path d="M86.9446 21.236C88.2486 21.236 89.3057 20.0455 89.3057 18.5769C89.3057 17.1084 88.2486 15.9178 86.9446 15.9178C85.6406 15.9178 84.5835 17.1084 84.5835 18.5769C84.5835 20.0455 85.6406 21.236 86.9446 21.236Z" fill="#109D9A"/>
</svg>
