<svg width="75" height="133" viewBox="0 0 75 133" fill="none" xmlns="http://www.w3.org/2000/svg">
<path d="M11.6109 3.15405H62.6109C64.9905 3.15405 67.2726 4.12645 68.9552 5.85732C70.6378 7.5882 71.5831 9.93577 71.5831 12.3836V120.709C71.5831 121.921 71.351 123.121 70.9002 124.241C70.4493 125.361 69.7884 126.378 68.9552 127.236C68.1221 128.093 67.133 128.772 66.0444 129.236C64.9559 129.7 63.7891 129.939 62.6109 129.939H11.6109C10.4326 129.939 9.26593 129.7 8.17737 129.236C7.08881 128.772 6.09972 128.093 5.26658 127.236C4.43343 126.378 3.77254 125.361 3.32164 124.241C2.87075 123.121 2.63867 121.921 2.63867 120.709V12.3836C2.63867 9.93577 3.58396 7.5882 5.26658 5.85732C6.94919 4.12645 9.23131 3.15405 11.6109 3.15405Z" stroke="#109D9A" stroke-width="5" stroke-miterlimit="10"/>
<path d="M1.69434 97.8785H71.5832" stroke="#109D9A" stroke-width="5" stroke-miterlimit="10"/>
<path d="M1.69434 24.042H71.5832" stroke="#109D9A" stroke-width="5" stroke-miterlimit="10"/>
<path d="M37.1111 15.2984C38.1543 15.2984 38.9999 14.4284 38.9999 13.3553C38.9999 12.2822 38.1543 11.4122 37.1111 11.4122C36.0679 11.4122 35.2222 12.2822 35.2222 13.3553C35.2222 14.4284 36.0679 15.2984 37.1111 15.2984Z" fill="#109D9A"/>
<path d="M38.0554 120.709C41.4458 120.709 44.1943 117.882 44.1943 114.394C44.1943 110.907 41.4458 108.079 38.0554 108.079C34.665 108.079 31.9165 110.907 31.9165 114.394C31.9165 117.882 34.665 120.709 38.0554 120.709Z" stroke="#109D9A" stroke-width="5" stroke-miterlimit="10"/>
</svg>
