<svg width="86" height="133" viewBox="0 0 86 133" fill="none" xmlns="http://www.w3.org/2000/svg">
<path d="M12.8824 3H73.1176C75.7386 3 78.2522 4.11309 80.1055 6.09442C81.9588 8.07574 83 10.763 83 13.565V119.215C83 122.017 81.9588 124.704 80.1055 126.686C78.2522 128.667 75.7386 129.78 73.1176 129.78H12.8824C10.2614 129.78 7.74777 128.667 5.89447 126.686C4.04117 124.704 3 122.017 3 119.215V13.565C3 10.763 4.04117 8.07574 5.89447 6.09442C7.74777 4.11309 10.2614 3 12.8824 3Z" stroke="#109D9A" stroke-width="5" stroke-miterlimit="10"/>
<path d="M72.647 15.0743H12.8823V52.6556H72.647V15.0743Z" stroke="#109D9A" stroke-width="5" stroke-miterlimit="10"/>
<path d="M43.4707 120.221C57.7652 120.221 69.3531 107.833 69.3531 92.551C69.3531 77.2691 57.7652 64.8807 43.4707 64.8807C29.1763 64.8807 17.5884 77.2691 17.5884 92.551C17.5884 107.833 29.1763 120.221 43.4707 120.221Z" stroke="#109D9A" stroke-width="5" stroke-miterlimit="10"/>
<path d="M43.4702 71.4209V78.9673" stroke="#109D9A" stroke-width="5" stroke-miterlimit="10"/>
<path d="M43.4702 106.135V113.178" stroke="#109D9A" stroke-width="5" stroke-miterlimit="10"/>
<path d="M23.7061 92.5509H30.7649" stroke="#109D9A" stroke-width="5" stroke-miterlimit="10"/>
<path d="M56.1763 92.5509H62.7645" stroke="#109D9A" stroke-width="5" stroke-miterlimit="10"/>
</svg>
