<svg width="170" height="132" viewBox="0 0 170 132" fill="none" xmlns="http://www.w3.org/2000/svg">
<path d="M17.1019 3H152.898C156.638 3 160.225 4.52175 162.87 7.2305C165.514 9.93924 167 13.6131 167 17.4438V114.271C167 118.102 165.514 121.776 162.87 124.484C160.225 127.193 156.638 128.715 152.898 128.715H17.1019C13.3619 128.715 9.77498 127.193 7.13035 124.484C4.48573 121.776 3 118.102 3 114.271V17.4438C3 13.6131 4.48573 9.93924 7.13035 7.2305C9.77498 4.52175 13.3619 3 17.1019 3Z" stroke="#109D9A" stroke-width="5" stroke-miterlimit="10"/>
<path d="M125.216 129.785V3.53516" stroke="#109D9A" stroke-width="5" stroke-miterlimit="10"/>
<path d="M16.0573 65.59C17.4995 65.59 18.6687 64.3925 18.6687 62.9153C18.6687 61.438 17.4995 60.2405 16.0573 60.2405C14.615 60.2405 13.4458 61.438 13.4458 62.9153C13.4458 64.3925 14.615 65.59 16.0573 65.59Z" fill="#109D9A"/>
<path d="M146.631 74.1493C150.958 74.1493 154.465 70.5567 154.465 66.1249C154.465 61.6932 150.958 58.1006 146.631 58.1006C142.304 58.1006 138.796 61.6932 138.796 66.1249C138.796 70.5567 142.304 74.1493 146.631 74.1493Z" stroke="#109D9A" stroke-width="5" stroke-miterlimit="10"/>
</svg>
