<svg width="30" height="30" viewBox="0 0 30 30" fill="none" xmlns="http://www.w3.org/2000/svg">
<rect x="29.5" y="29.5" width="29" height="29" rx="14.5" transform="rotate(-180 29.5 29.5)" stroke="#109D9A"/>
<path d="M14.198 19.5587L9.67855 15.4588C9.61008 15.3966 9.56146 15.3293 9.5327 15.2569C9.50394 15.1844 9.48979 15.1067 9.49025 15.0239C9.49025 14.9411 9.50463 14.8634 9.53338 14.791C9.56214 14.7185 9.61053 14.6512 9.67855 14.5891L14.198 10.4891C14.3235 10.3752 14.4805 10.3158 14.6691 10.3108C14.8576 10.3059 15.0201 10.3653 15.1566 10.4891C15.2936 10.603 15.365 10.7455 15.3709 10.9165C15.3769 11.0875 15.3111 11.235 15.1737 11.3588L11.8184 14.4027L19.4706 14.4027C19.6646 14.4027 19.8273 14.4623 19.9588 14.5816C20.0903 14.7009 20.1558 14.8483 20.1553 15.0239C20.1553 15.1999 20.0898 15.3476 19.9588 15.4668C19.8278 15.5861 19.6651 15.6455 19.4706 15.6451L11.8184 15.6451L15.1737 18.689C15.2993 18.8029 15.365 18.9479 15.3709 19.1239C15.3769 19.2999 15.3111 19.4448 15.1737 19.5587C15.0482 19.683 14.8884 19.7451 14.6944 19.7451C14.5004 19.7451 14.3349 19.683 14.198 19.5587Z" fill="#109D9A"/>
</svg>
