<svg width="26" height="23" viewBox="0 0 26 23" fill="none" xmlns="http://www.w3.org/2000/svg">
<path d="M14.5233 0.454323L25.5409 10.4494C25.7078 10.6008 25.8264 10.7649 25.8965 10.9416C25.9666 11.1183 26.0011 11.3076 26 11.5095C26 11.7114 25.9649 11.9007 25.8948 12.0774C25.8247 12.2541 25.7067 12.4181 25.5409 12.5696L14.5233 22.5647C14.2172 22.8423 13.8344 22.9872 13.3748 22.9993C12.9151 23.0114 12.5189 22.8665 12.1862 22.5647C11.8523 22.287 11.6782 21.9397 11.6637 21.5228C11.6492 21.1058 11.8095 20.7464 12.1445 20.4445L20.3242 13.0239L1.66935 13.0239C1.19637 13.0239 0.799622 12.8785 0.479107 12.5878C0.158594 12.297 -0.00110626 11.9376 5.72205e-06 11.5095C5.72205e-06 11.0804 0.159708 10.7205 0.479107 10.4297C0.798508 10.139 1.19525 9.99408 1.66935 9.99509L20.3242 9.99509L12.1445 2.57449C11.8384 2.29685 11.6782 1.94349 11.6637 1.51441C11.6492 1.08533 11.8095 0.731964 12.1445 0.454323C12.4505 0.151442 12.84 0 13.313 0C13.786 0 14.1894 0.151442 14.5233 0.454323Z" fill="#109D9A"/>
</svg>
