<svg width="361" height="199" viewBox="0 0 361 199" fill="none" xmlns="http://www.w3.org/2000/svg">
<mask id="mask0_251_153" style="mask-type:luminance" maskUnits="userSpaceOnUse" x="0" y="0" width="120" height="199">
<path d="M119.653 0.678894H0.341797V198.321H119.653V0.678894Z" fill="white"/>
</mask>
<g mask="url(#mask0_251_153)">
<mask id="mask1_251_153" style="mask-type:luminance" maskUnits="userSpaceOnUse" x="0" y="1" width="118" height="197">
<path d="M0.816406 1.33328H117.833V197.667H0.816406V1.33328Z" fill="white"/>
</mask>
<g mask="url(#mask1_251_153)">
<path fill-rule="evenodd" clip-rule="evenodd" d="M22.6712 1.33328H95.991C108.021 1.33328 117.809 11.1244 117.809 23.16V48.9441H111.453V26.3351H7.20933V158.252H111.453V132.386H117.809V175.825C117.809 187.042 108.021 197.651 95.991 197.651H22.6712C10.6408 197.651 0.853516 187.86 0.853516 175.825V23.16C0.853516 11.1244 10.6408 1.33328 22.6712 1.33328ZM95.991 7.68855H22.6712C15.2348 7.68855 9.00699 12.9701 7.53711 19.9798H111.125C109.655 12.9701 103.427 7.68855 95.991 7.68855ZM22.6712 191.296H95.991C104.518 191.296 111.453 184.358 111.453 175.825V164.607H7.20933V175.825C7.20933 184.358 14.1439 191.296 22.6712 191.296Z" fill="#109D9A"/>
</g>
<path d="M59.3316 168.697C54.2766 168.697 50.1641 172.813 50.1641 177.87C50.1641 182.926 54.2766 187.042 59.3316 187.042C64.3865 187.042 68.4991 182.926 68.4991 177.87C68.4991 172.813 64.3865 168.697 59.3316 168.697ZM59.3316 180.682C57.7798 180.682 56.5148 179.419 56.5148 177.87C56.5148 176.315 57.7798 175.053 59.3316 175.053C60.8834 175.053 62.1484 176.315 62.1484 177.87C62.1484 179.419 60.8834 180.682 59.3316 180.682Z" fill="#109D9A"/>
</g>
<path d="M77.9492 100.426H85.194V93.1807H109.126L116.366 85.9359V63.1703L109.126 55.9255H85.194L77.9492 63.1703V100.426ZM85.194 85.9359V63.1703H109.126V85.9359H85.194Z" fill="white"/>
<path d="M131.887 93.1807H164.226V85.9359H131.887V78.1755H155.82V70.9307H131.887V63.1703H164.226V55.9255H131.887L124.643 63.1703V85.9359L131.887 93.1807Z" fill="white"/>
<path d="M172.5 93.1807H179.745V63.1703H191.578V83.2224H198.823V63.1703H210.594V93.1807H217.839V63.1703L210.594 55.9255H179.745L172.5 63.1703V93.1807Z" fill="white"/>
<path d="M233.358 93.1807H258.582L265.827 85.9359V63.1703L258.582 55.9255H233.358L226.113 63.1703V85.9359L233.358 93.1807ZM233.358 85.9359V63.1703H258.582V85.9359H233.358Z" fill="white"/>
<path d="M274.1 93.1807H281.344V78.1755H306.568V93.1807H313.813V55.9255H306.568V70.9307H281.344V55.9255H274.1V93.1807Z" fill="white"/>
<path d="M337.674 93.1807H344.919V63.1703H360.503V55.9255H322.086V63.1703H337.674V93.1807Z" fill="white"/>
<path d="M80.8978 117.712H88.6478V115.738H80.8978V109.54H88.6478V107.566H80.8978L78.9238 109.54V115.738L80.8978 117.712Z" fill="white"/>
<path d="M96.9076 117.712H103.777L105.746 115.738V109.54L103.777 107.566H96.9076L94.9336 109.54V115.738L96.9076 117.712ZM96.9076 115.738V109.54H103.777V115.738H96.9076Z" fill="white"/>
<path d="M116.278 117.712H118.252V109.54H122.497V107.566H112.033V109.54H116.278V117.712Z" fill="white"/>
<path d="M130.755 117.712H137.625L139.594 115.738V109.54L137.625 107.566H130.755L128.781 109.54V115.738L130.755 117.712ZM130.755 115.738V109.54H137.625V115.738H130.755Z" fill="white"/>
<path d="M145.883 117.712H153.633L155.607 115.738V109.54L153.633 107.566H145.883V117.712ZM147.857 115.738V113.629H153.633V115.738H147.857ZM147.857 111.655V109.54H153.633V111.655H147.857Z" fill="white"/>
<path d="M163.867 117.712H170.382L172.356 115.738V109.54L170.382 107.566H163.867V105.597H161.893V115.738L163.867 117.712ZM163.867 115.738V109.54H170.382V115.738H163.867ZM174.325 117.712H176.299V107.566H174.325V117.712Z" fill="white"/>
<path d="M182.584 117.712H184.558V113.629H191.428V117.712H193.396V113.629L192.412 112.639L193.396 111.655V107.566H191.428V111.655H184.558V107.566H182.584V111.655L183.574 112.639L182.584 113.629V117.712Z" fill="white"/>
<path d="M216.77 117.712H218.744V109.54H222.989V107.566H212.525V109.54H216.77V117.712Z" fill="white"/>
<path d="M231.247 117.712H240.055V115.738H231.247V113.629H237.763V111.655H231.247V109.54H240.055V107.566H231.247L229.273 109.54V115.738L231.247 117.712Z" fill="white"/>
<path d="M246.338 117.712H247.468L249.437 115.738V109.54H254.9V117.712H256.869V109.54L254.9 107.566H249.437L247.468 109.54V115.738H246.338V117.712Z" fill="white"/>
<path d="M265.132 117.712H273.939V115.738H265.132V113.629H271.648V111.655H265.132V109.54H273.939V107.566H265.132L263.158 109.54V115.738L265.132 117.712Z" fill="white"/>
<path d="M284.717 119.686H286.686V117.712H289.186L291.16 115.738V109.54L289.186 107.566H286.686V105.597H284.717V107.566H282.197L280.223 109.54V115.738L282.197 117.712H284.717V119.686ZM282.197 115.738V109.54H284.717V115.738H282.197ZM286.686 115.738V109.54H289.186V115.738H286.686Z" fill="white"/>
<path d="M299.421 117.712H306.291L308.26 115.738V109.54L306.291 107.566H299.421L297.447 109.54V115.738L299.421 117.712ZM299.421 115.738V109.54H306.291V115.738H299.421Z" fill="white"/>
<path d="M314.549 117.712H316.523V113.629H323.393V117.712H325.361V107.566H323.393V111.655H316.523V107.566H314.549V117.712Z" fill="white"/>
<path d="M333.622 117.712H340.492L342.461 115.738V109.54L340.492 107.566H333.622L331.648 109.54V115.738L333.622 117.712ZM333.622 115.738V109.54H340.492V115.738H333.622Z" fill="white"/>
<path d="M348.75 117.712H356.5L358.474 115.738V109.54L356.5 107.566H348.75V117.712ZM350.724 115.738V113.629H356.5V115.738H350.724ZM350.724 111.655V109.54H356.5V111.655H350.724Z" fill="white"/>
</svg>
