<svg width="21" height="23" viewBox="0 0 21 23" fill="none" xmlns="http://www.w3.org/2000/svg">
<path d="M6.79 7.14278C5.23544 8.84539 4.79249 11.3668 6.1529 13.2283C6.94265 14.3089 7.83734 15.2944 8.81941 16.1671C10.4856 17.6478 12.9753 17.2095 14.4783 15.5633C14.7933 15.2183 15.26 15.1033 15.6683 15.2567C16.975 15.7294 18.3867 15.985 19.8333 15.985C20.475 15.985 21 16.56 21 17.2628V21.7222C21 22.425 20.475 23 19.8333 23C8.87833 23 0 13.2761 0 1.27778C0 0.575 0.525 0 1.16667 0H5.25C5.89167 0 6.41667 0.575 6.41667 1.27778C6.41667 2.875 6.65 4.40833 7.08167 5.83944C7.21 6.28667 7.11667 6.785 6.79 7.14278Z" fill="white"/>
</svg>
