<svg width="12" height="10" viewBox="0 0 12 10" fill="none" xmlns="http://www.w3.org/2000/svg">
<path d="M11.0444 0.109409C10.9824 0.0558928 10.907 0.0203009 10.8263 0.00646788C10.7456 -0.00736509 10.6627 0.00108526 10.5864 0.0309085L0.453326 3.99644C0.309717 4.05229 0.188135 4.15327 0.106885 4.28419C0.0256345 4.41511 -0.0108868 4.56889 0.00281919 4.72236C0.0165252 4.87583 0.0797166 5.0207 0.18288 5.13515C0.286044 5.2496 0.423595 5.32745 0.574827 5.35696L3.20035 5.87246V8.79999C3.19983 8.95945 3.24722 9.11539 3.33637 9.2476C3.42552 9.37981 3.55233 9.4822 3.70036 9.5415C3.84815 9.60185 4.01069 9.61634 4.16683 9.58307C4.32297 9.54981 4.46549 9.47034 4.57586 9.35499L5.84188 8.04198L7.85039 9.8C7.9953 9.92853 8.1822 9.99966 8.3759 10C8.46078 9.99993 8.54513 9.98661 8.6259 9.9605C8.75788 9.91862 8.87658 9.8429 8.97018 9.74088C9.06379 9.63885 9.12903 9.51408 9.15941 9.37899L11.1889 0.549913C11.2071 0.470287 11.2032 0.387222 11.1778 0.309621C11.1523 0.232021 11.1062 0.16281 11.0444 0.109409ZM7.9874 1.90943L3.50785 5.11746L1.02783 4.63095L7.9874 1.90943ZM4.00036 8.79999V6.42597L5.23987 7.51298L4.00036 8.79999ZM8.3769 9.19999L4.24286 5.57496L10.1929 1.31042L8.3769 9.19999Z" fill="#109D9A"/>
</svg>
