<svg width="25" height="25" viewBox="0 0 25 25" fill="none" xmlns="http://www.w3.org/2000/svg">
<path fill-rule="evenodd" clip-rule="evenodd" d="M19.4719 15.6964C19.1319 15.0117 18.6839 14.3862 18.145 13.8439C17.9648 13.6403 17.7761 13.4443 17.5794 13.2564L17.5556 13.2333C17.4826 13.1624 17.4105 13.0905 17.3394 13.0177C18.076 11.9934 18.7063 10.8967 19.2206 9.74457L19.2412 9.69832L19.2556 9.64957C19.3237 9.4227 19.4012 8.99145 19.1262 8.60145C18.8412 8.19895 18.3856 8.12645 18.08 8.12645H16.6756C16.3816 8.11305 16.0908 8.19301 15.845 8.35489C15.5991 8.51677 15.4108 8.75227 15.3069 9.0277C15.0046 9.74747 14.6262 10.4328 14.1781 11.0721V9.42645C14.1781 9.21395 14.1581 8.8577 13.93 8.5577C13.6575 8.1977 13.2631 8.12645 12.9894 8.12645H10.7606C10.4698 8.11976 10.1875 8.22517 9.97229 8.42087C9.75705 8.61656 9.62532 8.88755 9.60437 9.1777L9.6025 9.20582V9.23395C9.6025 9.53707 9.7225 9.76082 9.81875 9.90145C9.86188 9.96457 9.9075 10.0221 9.93688 10.0583L9.94313 10.0664C9.97438 10.1052 9.995 10.1308 10.0156 10.1596C10.0706 10.2333 10.1488 10.3483 10.1713 10.6446V11.5652C9.72386 10.816 9.35702 10.0216 9.07687 9.1952L9.07188 9.18145L9.06687 9.16832C8.99062 8.96895 8.86875 8.67895 8.62437 8.4577C8.33937 8.19832 8.00187 8.12645 7.695 8.12645H6.27C5.95938 8.12645 5.585 8.19895 5.30563 8.49332C5.03125 8.78332 5 9.13082 5 9.31457V9.39832L5.0175 9.47957C5.41206 11.3113 6.22515 13.0269 7.39313 14.4921C7.92711 15.3341 8.65205 16.0385 9.50916 16.548C10.3663 17.0575 11.3314 17.3578 12.3263 17.4246L12.3519 17.4264H12.3781C12.8319 17.4264 13.305 17.3871 13.6606 17.1502C14.14 16.8302 14.1781 16.3396 14.1781 16.0946V15.3833C14.3013 15.4833 14.4537 15.6171 14.6406 15.7971C14.8669 16.0233 15.0469 16.2196 15.2013 16.3908L15.2838 16.4821C15.4038 16.6158 15.5219 16.7477 15.6294 16.8558C15.7644 16.9914 15.9312 17.1408 16.14 17.2514C16.3669 17.3708 16.605 17.4252 16.8575 17.4252H18.2831C18.5837 17.4252 19.0144 17.3539 19.3175 17.0027C19.6475 16.6202 19.6225 16.1508 19.5187 15.8139L19.5 15.7533L19.4719 15.6964ZM15.8969 15.7627C15.7032 15.5462 15.5037 15.3348 15.2987 15.1289L15.2969 15.1271C14.4488 14.3096 14.0531 14.1677 13.7731 14.1677C13.6237 14.1677 13.4594 14.1839 13.3525 14.3177C13.3044 14.3815 13.2728 14.4562 13.2606 14.5352C13.2456 14.6269 13.2389 14.7198 13.2406 14.8127V16.0946C13.2406 16.2539 13.2144 16.3208 13.1406 16.3696C13.0425 16.4352 12.8331 16.4883 12.3837 16.4883C11.5301 16.4302 10.7025 16.1704 9.96886 15.7301C9.23523 15.2899 8.61658 14.6818 8.16375 13.9558L8.15875 13.9477L8.1525 13.9402C7.06445 12.5859 6.30615 10.9972 5.9375 9.29957C5.94 9.21832 5.9575 9.16895 5.98625 9.13895C6.01562 9.1077 6.0875 9.06395 6.27 9.06395H7.695C7.85312 9.06395 7.93562 9.09895 7.995 9.15207C8.06125 9.21332 8.12 9.31645 8.19 9.5002C8.54 10.5289 9.0125 11.4914 9.46063 12.1983C9.68438 12.5521 9.90438 12.8464 10.1031 13.0546C10.2025 13.1583 10.2994 13.2446 10.3925 13.3058C10.4819 13.3646 10.5838 13.4114 10.6888 13.4114C10.7438 13.4114 10.8081 13.4052 10.87 13.3783C10.9368 13.3488 10.9918 13.2978 11.0262 13.2333C11.0906 13.1158 11.1088 12.9427 11.1088 12.7158V10.6077C11.0756 10.0964 10.9213 9.80832 10.7713 9.60395C10.7409 9.56307 10.7096 9.52285 10.6775 9.48332L10.6694 9.47332C10.6427 9.44095 10.6173 9.40759 10.5931 9.37332C10.5624 9.3351 10.5438 9.28849 10.54 9.23957C10.5449 9.18991 10.5686 9.14399 10.6062 9.11123C10.6439 9.07847 10.6926 9.06133 10.7425 9.06332H12.9894C13.1181 9.06332 13.1613 9.09457 13.1831 9.12395C13.2144 9.16457 13.2406 9.24895 13.2406 9.42645V12.2564C13.2406 12.5927 13.3956 12.8202 13.6206 12.8202C13.8794 12.8202 14.0662 12.6633 14.3925 12.3371L14.3981 12.3308L14.4031 12.3252C15.135 11.4329 15.7329 10.4387 16.1781 9.37395L16.1806 9.36645C16.2141 9.27238 16.2774 9.19183 16.3609 9.1371C16.4444 9.08237 16.5435 9.05646 16.6431 9.06332H18.0806C18.2756 9.06332 18.3394 9.11332 18.3606 9.1427C18.3825 9.17395 18.3981 9.24082 18.3606 9.37207C17.8472 10.5198 17.2126 11.6093 16.4675 12.6221L16.4625 12.6296C16.3906 12.7402 16.3112 12.8627 16.3 13.0027C16.2875 13.1539 16.3525 13.2908 16.4669 13.4383C16.55 13.5608 16.7219 13.7289 16.8962 13.8996L16.9125 13.9158C17.095 14.0946 17.2931 14.2883 17.4519 14.4758L17.4563 14.4802L17.4606 14.4852C17.934 14.9574 18.3277 15.5032 18.6263 16.1014C18.6737 16.2639 18.645 16.3477 18.6075 16.3908C18.5644 16.4408 18.4675 16.4877 18.2837 16.4877H16.8575C16.7603 16.4901 16.6641 16.4675 16.5781 16.4221C16.4727 16.3608 16.3771 16.2841 16.2944 16.1946C16.205 16.1052 16.1081 15.9971 15.9894 15.8652L15.8975 15.7627H15.8969Z" fill="#109D9A"/>
<rect x="0.5" y="0.5" width="24" height="24" rx="12" stroke="#109D9A"/>
</svg>
